<svg xmlns="http://www.w3.org/2000/svg" xmlns:xlink="http://www.w3.org/1999/xlink" version="1.1" width="20" height="20"
  viewBox="0 0 20 20">
  <g>
    <g>
      <g></g>
      <g>
        <path
          d="M13.611899330978394,1.8593790195178985Q13.721709330978394,1.7146390195178987,13.779639330978394,1.5424290195178985Q13.837569330978393,1.3702290195178985,13.837569330978393,1.1885390195178986Q13.837569330978393,1.1340090195178985,13.832229330978393,1.0797490195178985Q13.826879330978393,1.0254800195178986,13.816239330978394,0.9720000195178986Q13.805599330978394,0.9185210195178986,13.789779330978394,0.8663410195178985Q13.773949330978393,0.8141620195178986,13.753079330978393,0.7637850195178986Q13.732209330978394,0.7134090195178986,13.706509330978394,0.6653200195178985Q13.680809330978393,0.6172310195178986,13.650509330978393,0.5718940195178985Q13.620219330978394,0.5265560195178985,13.585629330978394,0.4844060195178986Q13.551039330978394,0.44225601951789856,13.512479330978394,0.40369901951789855Q13.473919330978394,0.36514301951789857,13.431769330978394,0.33055101951789856Q13.389619330978393,0.29595901951789855,13.344279330978393,0.26566501951789856Q13.298949330978393,0.23537201951789857,13.250859330978393,0.20966801951789857Q13.202769330978393,0.18396401951789856,13.152389330978394,0.16309721951789857Q13.102019330978393,0.14223051951789856,13.049839330978394,0.12640211951789856Q12.997659330978394,0.11057371951789856,12.944179330978393,0.09993591951789856Q12.890699330978393,0.08929821951789856,12.836429330978394,0.08395361951789856Q12.782169330978393,0.07860901951789856,12.727639330978393,0.07860901951789856Q12.591869330978394,0.07860901951789856,12.460099330978395,0.11133531951789856Q12.328339330978395,0.14406161951789856,12.208339330978394,0.20758401951789857Q12.088349330978392,0.27110701951789856,11.987199330978394,0.3616800195178986Q11.886059330978394,0.45225401951789856,11.809729330978394,0.5645360195178986L4.698378330978394,9.4763490195179C4.407234430978393,9.841199019517898,4.407234430978393,10.358909019517899,4.698377330978394,10.7238090195179L11.660289330978394,19.4483090195179Q11.737089330978392,19.557609019517898,11.837639330978394,19.6456090195179Q11.938189330978393,19.7336090195179,12.056749330978395,19.7952090195179Q12.175299330978394,19.856809019517897,12.305079330978394,19.888509019517898Q12.434859330978394,19.9202090195179,12.568459330978394,19.9202090195179Q12.622989330978394,19.9202090195179,12.677249330978393,19.9148090195179Q12.731519330978394,19.9095090195179,12.784999330978394,19.8988090195179Q12.838479330978393,19.888209019517898,12.890659330978394,19.8724090195179Q12.942839330978394,19.856509019517897,12.993209330978393,19.8357090195179Q13.043589330978394,19.8148090195179,13.091679330978394,19.7891090195179Q13.139769330978394,19.763409019517898,13.185099330978394,19.733109019517897Q13.230439330978394,19.702809019517897,13.272589330978393,19.6682090195179Q13.314739330978394,19.6336090195179,13.353299330978393,19.5951090195179Q13.391859330978393,19.5565090195179,13.426449330978393,19.5144090195179Q13.461039330978393,19.472209019517898,13.491329330978393,19.426909019517897Q13.521629330978394,19.3815090195179,13.547329330978394,19.333409019517898Q13.573029330978393,19.2854090195179,13.593899330978394,19.2350090195179Q13.614769330978394,19.1846090195179,13.630599330978393,19.132409019517898Q13.646419330978393,19.0802090195179,13.657059330978393,19.0268090195179Q13.667699330978394,18.9733090195179,13.673049330978394,18.919009019517897Q13.678389330978394,18.8648090195179,13.678389330978394,18.8102090195179Q13.678389330978394,18.613909019517898,13.611069330978394,18.429609019517898Q13.543739330978394,18.245209019517898,13.417259330978393,18.0951090195179L13.419449330978393,18.0932090195179L7.333169330978393,10.410509019517898C7.1890593309783934,10.228609019517899,7.1890593309783934,9.971499019517898,7.333169330978393,9.789589019517898L13.614199330978394,1.8610690195178985L13.611899330978394,1.8593790195178985Z"
          fill-rule="evenodd" fill-opacity="1" />
      </g>
    </g>
  </g>
</svg>